<?xml version="1.0" encoding="utf-8"?>
<!-- Generator: Adobe Illustrator 27.5.0, SVG Export Plug-In . SVG Version: 6.00 Build 0)  -->
<svg version="1.1" xmlns="http://www.w3.org/2000/svg" xmlns:xlink="http://www.w3.org/1999/xlink" x="0px" y="0px"
	 viewBox="0 0 500 500" style="enable-background:new 0 0 500 500;" xml:space="preserve">
<g id="Background_complete">
	<g>
		<g>
			<g>
				<g>
					<path style="fill:#ff0000;" d="M444.708,349.145H263.962c-3.232,0-5.862-2.63-5.862-5.862V80.009
						c0-3.232,2.63-5.862,5.862-5.862h180.746c3.232,0,5.862,2.629,5.862,5.862v263.273
						C450.57,346.515,447.94,349.145,444.708,349.145z M263.962,74.397c-3.095,0-5.612,2.518-5.612,5.612v263.273
						c0,3.095,2.518,5.612,5.612,5.612h180.746c3.095,0,5.612-2.518,5.612-5.612V80.009c0-3.094-2.518-5.612-5.612-5.612H263.962z"
						/>
				</g>
			</g>
			<g>
				<g>
					<path style="fill:#ff0000;" d="M236.28,349.145H55.534c-3.232,0-5.862-2.63-5.862-5.862V80.009
						c0-3.232,2.629-5.862,5.862-5.862H236.28c3.232,0,5.862,2.629,5.862,5.862v263.273
						C242.143,346.515,239.513,349.145,236.28,349.145z M55.534,74.397c-3.094,0-5.612,2.518-5.612,5.612v263.273
						c0,3.095,2.518,5.612,5.612,5.612H236.28c3.095,0,5.612-2.518,5.612-5.612V80.009c0-3.094-2.518-5.612-5.612-5.612H55.534z"/>
				</g>
			</g>
		</g>
		<g>
			<g>
				<rect x="0.788" y="410.214" style="fill:#ff0000;" width="500" height="0.25"/>
			</g>
		</g>
	</g>
	<g>
		<g>
			<path style="fill:#ff0000;" d="M181.218,99.549h31.571c0.828,0,1.5-0.672,1.5-1.5v-7.127c0-0.828-0.672-1.5-1.5-1.5h-31.571
				c-0.829,0-1.5,0.672-1.5,1.5v7.127C179.718,98.877,180.389,99.549,181.218,99.549z"/>
		</g>
		<path style="fill:#F0F0F0;" d="M162.361,112.464h31.571c0.828,0,1.5-0.672,1.5-1.5v-7.127c0-0.828-0.672-1.5-1.5-1.5h-31.571
			c-0.828,0-1.5,0.672-1.5,1.5v7.127C160.861,111.793,161.533,112.464,162.361,112.464z"/>
	</g>
	<g>
		<path style="fill:#F0F0F0;" d="M97.459,287.256H65.888c-0.828,0-1.5-0.672-1.5-1.5v-7.127c0-0.828,0.672-1.5,1.5-1.5h31.571
			c0.828,0,1.5,0.672,1.5,1.5v7.127C98.959,286.584,98.288,287.256,97.459,287.256z"/>
		<path style="fill:#F0F0F0;" d="M116.316,300.171H84.745c-0.828,0-1.5-0.672-1.5-1.5v-7.127c0-0.828,0.672-1.5,1.5-1.5h31.571
			c0.828,0,1.5,0.672,1.5,1.5v7.127C117.816,299.5,117.145,300.171,116.316,300.171z"/>
	</g>
	<g>
		<g>
			<path style="fill:#F0F0F0;" d="M312.518,98.154h-31.571c-0.828,0-1.5-0.672-1.5-1.5v-7.127c0-0.828,0.672-1.5,1.5-1.5h31.571
				c0.828,0,1.5,0.672,1.5,1.5v7.127C314.018,97.483,313.347,98.154,312.518,98.154z"/>
			<path style="fill:#F0F0F0;" d="M350.232,98.154h-31.571c-0.828,0-1.5-0.672-1.5-1.5v-7.127c0-0.828,0.672-1.5,1.5-1.5h31.571
				c0.829,0,1.5,0.672,1.5,1.5v7.127C351.732,97.483,351.061,98.154,350.232,98.154z"/>
		</g>
		<path style="fill:#F0F0F0;" d="M331.375,111.07h-31.571c-0.828,0-1.5-0.672-1.5-1.5v-7.127c0-0.828,0.672-1.5,1.5-1.5h31.571
			c0.828,0,1.5,0.672,1.5,1.5v7.127C332.875,110.398,332.204,111.07,331.375,111.07z"/>
	</g>
	<g>
		<rect x="368.652" y="91.477" style="fill:#F0F0F0;" width="70.319" height="170.85"/>
		<rect x="372.94" y="95.77" style="fill:#FAFAFA;" width="61.74" height="162.27"/>
		<polygon style="fill:#FFFFFF;" points="434.68,102.72 434.68,114.97 372.94,176.72 372.94,164.46 		"/>
		<polygon style="fill:#FFFFFF;" points="434.68,145.09 434.68,162.37 372.94,224.11 372.94,206.82 		"/>
		<rect x="401.687" y="91.477" style="fill:#F0F0F0;" width="4.25" height="170.85"/>
		<rect x="368.652" y="174.72" style="fill:#F0F0F0;" width="70.319" height="4.364"/>
	</g>
	<g>
		<rect x="64.388" y="91.477" style="fill:#F0F0F0;" width="70.319" height="170.85"/>
		<rect x="68.676" y="95.77" style="fill:#FAFAFA;" width="61.74" height="162.27"/>
		<polygon style="fill:#FFFFFF;" points="130.416,102.72 130.416,114.97 68.676,176.72 68.676,164.46 		"/>
		<polygon style="fill:#FFFFFF;" points="130.416,145.09 130.416,162.37 68.676,224.11 68.676,206.82 		"/>
		<rect x="97.423" y="91.477" style="fill:#F0F0F0;" width="4.25" height="170.85"/>
		<rect x="64.388" y="174.72" style="fill:#F0F0F0;" width="70.319" height="4.364"/>
	</g>
	<g>
		<g>
			<path style="fill:#F0F0F0;" d="M451.054,342.27l-5.621,18.684l-0.754,2.504l-2.939,9.766c-0.816,2.706-3.312,4.564-6.135,4.564
				H277.471c-2.83,0-5.318-1.858-6.135-4.564l-2.939-9.766l-0.754-2.504l-5.622-18.684c-0.451-1.493,0.669-2.986,2.216-2.986H448.83
				C450.385,339.285,451.497,340.778,451.054,342.27z"/>
			<polygon style="fill:#E0E0E0;" points="445.432,360.954 444.678,363.458 268.397,363.458 267.643,360.954 			"/>
			<g>
				<rect x="285.368" y="389.083" style="fill:#E0E0E0;" width="139.974" height="3.189"/>
				<polygon style="fill:#E0E0E0;" points="292.125,377.786 272.73,410.214 281.177,410.214 305.269,377.786 				"/>
				<polygon style="fill:#E0E0E0;" points="419.18,377.786 438.575,410.214 430.128,410.214 406.035,377.786 				"/>
			</g>
		</g>
		<g>
			<g>
				<g>
					<path style="fill:#E0E0E0;" d="M415.384,320.48v-21.337c0-0.274-0.221-0.495-0.495-0.495c-0.273,0-0.495,0.221-0.495,0.495
						v21.337H415.384z"/>
				</g>
			</g>
			<g>
				<g>
					<g>
						<g>
							<polygon style="fill:#E0E0E0;" points="401.703,322.791 402.175,324.543 402.276,324.916 406.152,339.285 423.627,339.285 
								427.503,324.916 427.603,324.543 428.075,322.791 428.176,322.419 428.699,320.48 401.08,320.48 401.603,322.419 							"/>
						</g>
					</g>
				</g>
			</g>
			<g>
				<g>
					<g>
						<path style="fill:#ff0000;" d="M413.12,306.206c0.596,0.145,1.177-0.104,1.499-0.558c0.112-0.155,0.195-0.332,0.236-0.528
							c0.023-0.099,0.033-0.2,0.033-0.307c0-0.335-0.117-0.657-0.33-0.913c-1.893-2.291-11.472-13.372-15.962-8.737
							C393.169,300.759,407.884,304.932,413.12,306.206z"/>
					</g>
				</g>
				<g>
					<g>
						<path style="fill:#E0E0E0;" d="M404.646,299.747l9.973,5.901c0.112-0.155,0.195-0.332,0.236-0.528l-9.914-5.868
							c-0.139-0.081-0.315-0.036-0.396,0.102C404.464,299.491,404.51,299.666,404.646,299.747z"/>
					</g>
				</g>
			</g>
			<g>
				<g>
					<g>
						<path style="fill:#F0F0F0;" d="M414.888,310.295c0,0.107,0.01,0.208,0.033,0.307c0.043,0.195,0.124,0.373,0.236,0.528
							c0.325,0.454,0.906,0.703,1.502,0.558c5.234-1.273,19.948-5.444,14.521-11.043c-4.488-4.632-14.067,6.446-15.962,8.737
							C415.005,309.638,414.888,309.963,414.888,310.295z"/>
					</g>
				</g>
				<g>
					<g>
						<path style="fill:#E0E0E0;" d="M414.921,310.602c0.043,0.195,0.124,0.373,0.236,0.528l9.975-5.901
							c0.134-0.079,0.18-0.256,0.099-0.393c-0.079-0.137-0.256-0.183-0.393-0.101L414.921,310.602z"/>
					</g>
				</g>
			</g>
			<g>
				<g>
					<g>
						<path style="fill:#F0F0F0;" d="M413.797,299.061c0.04,0.332,0.193,0.639,0.434,0.87c0.076,0.071,0.157,0.134,0.244,0.188
							c0.17,0.104,0.358,0.167,0.548,0.193c0.553,0.076,1.131-0.173,1.438-0.703c2.689-4.665,9.815-18.197,2.019-18.131
							C412.029,281.534,413.444,296.111,413.797,299.061z"/>
					</g>
				</g>
				<g>
					<g>
						<path style="fill:#E0E0E0;" d="M414.474,300.119c0.17,0.104,0.358,0.167,0.548,0.193l2.605-11.292
							c0.036-0.152-0.061-0.307-0.216-0.345c-0.155-0.033-0.31,0.061-0.345,0.218L414.474,300.119z"/>
					</g>
				</g>
			</g>
			<g>
				<g>
					<g>
						<path style="fill:#F0F0F0;" d="M413.12,317.972c0.596,0.144,1.177-0.104,1.499-0.558c0.112-0.155,0.195-0.332,0.236-0.528
							c0.023-0.099,0.033-0.2,0.033-0.307c0-0.332-0.117-0.657-0.33-0.913c-1.893-2.291-11.472-13.369-15.962-8.737
							C393.169,312.528,407.884,316.698,413.12,317.972z"/>
					</g>
				</g>
				<g>
					<g>
						<path style="fill:#E0E0E0;" d="M404.646,311.516l9.973,5.898c0.112-0.155,0.195-0.332,0.236-0.528l-9.914-5.868
							c-0.139-0.081-0.315-0.035-0.396,0.102C404.464,311.257,404.51,311.435,404.646,311.516z"/>
					</g>
				</g>
			</g>
		</g>
	</g>
</g>
<g id="Background_simple" style="display:none;">
	<g style="display:inline;">
		<path style="fill:#ff0000;" d="M153.602,152.331c-30.063-2.181-59.825,8.695-79.982,31.038
			c-15.168,16.813-27.002,40.662-24.976,73.654c3.924,63.889,82.364,107.765,154.689,73.081s64.263-94.718,170.15-105.692
			C479.37,213.438,474.26,83.407,378.288,74.043C290.027,65.432,243.032,158.82,153.602,152.331z"/>
		<path style="opacity:0.9;fill:#FFFFFF;" d="M153.602,152.331c-30.063-2.181-59.825,8.695-79.982,31.038
			c-15.168,16.813-27.002,40.662-24.976,73.654c3.924,63.889,82.364,107.765,154.689,73.081s64.263-94.718,170.15-105.692
			C479.37,213.438,474.26,83.407,378.288,74.043C290.027,65.432,243.032,158.82,153.602,152.331z"/>
	</g>
</g>
<g id="Button_2">
	<g>
		<g>
			<path style="fill:#F5F5F5;" d="M468.478,454.022c0,3.498-96.59,6.334-215.739,6.334S37,457.52,37,454.022
				c0-3.498,96.59-6.334,215.739-6.334S468.478,450.524,468.478,454.022z"/>
		</g>
	</g>
	<g>
		<path style="fill:#ff0000;" d="M310.039,303.58H168.363c-23.205,0-42.016-18.811-42.016-42.016v0
			c0-23.205,18.811-42.016,42.016-42.016h141.676c23.205,0,42.016,18.811,42.016,42.016v0
			C352.055,284.769,333.244,303.58,310.039,303.58z"/>
		<path style="opacity:0.7;fill:#FFFFFF;" d="M310.039,303.58H168.363c-23.205,0-42.016-18.811-42.016-42.016v0
			c0-23.205,18.811-42.016,42.016-42.016h141.676c23.205,0,42.016,18.811,42.016,42.016v0
			C352.055,284.769,333.244,303.58,310.039,303.58z"/>
		<path style="opacity:0.3;fill:#FFFFFF;" d="M168.362,300.58c-21.514,0-39.016-17.503-39.016-39.017
			c0-21.514,17.502-39.016,39.016-39.016h141.676c21.514,0,39.017,17.503,39.017,39.016c0,21.514-17.503,39.017-39.017,39.017
			H168.362z"/>
		<g>
			<circle style="fill:#ff0000;" cx="310.004" cy="261.564" r="37.772"/>
		</g>
		<g>
			<path style="fill:#FFFFFF;" d="M326.714,272.407c1.622,1.622,1.622,4.249,0,5.862c-0.811,0.811-1.871,1.216-2.931,1.216
				s-2.129-0.405-2.931-1.216l-10.848-10.848l-10.848,10.848c-0.802,0.811-1.871,1.216-2.931,1.216c-1.06,0-2.12-0.405-2.931-1.216
				c-1.622-1.613-1.622-4.24,0-5.862l10.848-10.839l-10.848-10.848c-1.622-1.622-1.622-4.249,0-5.862
				c1.622-1.622,4.249-1.622,5.862,0l10.848,10.848l10.848-10.848c1.613-1.622,4.24-1.622,5.862,0c1.622,1.613,1.622,4.24,0,5.862
				l-10.848,10.848L326.714,272.407z"/>
		</g>
	</g>
</g>
<g id="Button_1">
	<g>
		<path style="fill:#ff0000;" d="M310.039,209.914H168.363c-23.205,0-42.016-18.811-42.016-42.016v0
			c0-23.205,18.811-42.016,42.016-42.016h141.676c23.205,0,42.016,18.811,42.016,42.016v0
			C352.055,191.102,333.244,209.914,310.039,209.914z"/>
		<path style="opacity:0.2;" d="M168.362,206.914c-21.514,0-39.016-17.503-39.016-39.016c0-21.514,17.502-39.016,39.016-39.016
			h141.676c21.514,0,39.017,17.503,39.017,39.016c0,21.514-17.503,39.016-39.017,39.016H168.362z"/>
		<g>
			<circle style="fill:#ff0000;" cx="209.315" cy="167.898" r="37.772"/>
			<circle style="opacity:0.7;fill:#FFFFFF;" cx="209.315" cy="167.898" r="37.772"/>
			<path style="fill:#FFFFFF;" d="M202.708,181.097L202.708,181.097c-0.912,0-1.788-0.363-2.433-1.008l-9.361-9.361
				c-1.344-1.343-1.344-3.522,0-4.866c1.345-1.344,3.523-1.344,4.867,0l6.927,6.927l20.142-20.141c1.343-1.343,3.523-1.343,4.866,0
				c1.344,1.344,1.344,3.523,0,4.867l-22.574,22.574C204.495,180.734,203.62,181.097,202.708,181.097z"/>
		</g>
	</g>
</g>
<g id="Plant">
	<g>
		<g>
			<g>
				<rect x="136.896" y="448.277" style="fill:#263238;" width="13.913" height="6.236"/>
			</g>
		</g>
		<g>
			<g>
				<path style="fill:#ff0000;" d="M170.948,414.457l-1.913,5.242l-0.384,1.063l-0.213,0.577l-0.324,0.891l-1.235,3.36l-0.081,0.223
					l-0.202,0.567l-0.638,1.741l-0.718,1.973l-0.243,0.668l-0.03,0.071l-0.344,0.931l-1.68,4.594l-0.364,1.012l-3.38,9.26
					l-0.263,0.698l-0.668,1.832c-0.243,0.658-0.658,1.224-1.184,1.66c-0.213,0.162-0.435,0.314-0.678,0.435
					c-0.455,0.233-0.951,0.374-1.477,0.405c-0.081,0-0.162,0.01-0.243,0.01h-21.828c-0.354,0-0.698-0.051-1.032-0.142
					c-0.263-0.081-0.526-0.182-0.769-0.314c-0.81-0.435-1.457-1.154-1.781-2.054l-2.743-7.499l-0.344-0.931l-1.933-5.303
					l-0.213-0.577l-0.101-0.283l-0.334-0.911l-1.902-5.212l-0.121-0.324l-0.101-0.263l-0.82-2.267l-0.374-1.022l-0.304-0.83
					l-0.283-0.759l-0.212-0.587l-0.061-0.162l-0.901-2.469l-0.02-0.061l-0.223-0.607l-1.69-4.635H170.948z"/>
			</g>
		</g>
		<polygon style="opacity:0.2;fill:#FFFFFF;" points="169.036,419.699 168.651,420.762 168.439,421.339 168.115,422.229 
			119.428,422.229 118.528,419.76 118.507,419.699 		"/>
		<polygon style="opacity:0.2;fill:#FFFFFF;" points="166.88,425.589 166.799,425.811 166.597,426.378 165.959,428.119 
			121.584,428.119 121.483,427.856 120.663,425.589 		"/>
		<g>
			<g>
				<g>
					<g>
						<path style="fill:#ff0000;" d="M126.707,391.611c0,0,7.659-2.793,9.641,5.316c1.982,8.109,7.657,6.016,8.731,4.239
							c2.117-3.502,2.413-16.171-1.227-16.935C139.504,383.319,128.239,387.917,126.707,391.611z"/>
					</g>
				</g>
				<g style="opacity:0.5;">
					<g>
						<path d="M126.707,391.611c0,0,7.659-2.793,9.641,5.316c1.982,8.109,7.657,6.016,8.731,4.239
							c2.117-3.502,2.413-16.171-1.227-16.935C139.504,383.319,128.239,387.917,126.707,391.611z"/>
					</g>
				</g>
				<g>
					<g>
						<path style="fill:#ff0000;" d="M131.273,381.592c0,0-7.739-2.496-10.622,5.613c-2.883,8.109,0,28.038,0,28.038
							s6.668-2.089,8.83-8.936c2.163-6.848,1.937-21.895,14.372-22.075L131.273,381.592z"/>
					</g>
				</g>
				<g>
					<g>
						<path style="opacity:0.2;" d="M132.852,382.075c-6.726,3.917-7.807,12.22-8.488,19.245c-0.035,0.365,0.535,0.363,0.57,0
							c0.66-6.811,1.671-14.947,8.205-18.753C133.457,382.383,133.17,381.889,132.852,382.075L132.852,382.075z"/>
					</g>
				</g>
			</g>
			<g>
				<g>
					<g>
						<path style="fill:#ff0000;" d="M158.208,338.505c0,0-7.54-3.101-9.849,4.921c-2.309,8.022-7.738,7.377-8.708,4.012
							c-1.134-3.932-1.943-16.385,1.725-17.001C145.758,329.701,156.827,334.752,158.208,338.505z"/>
					</g>
				</g>
				<g style="opacity:0.5;">
					<g>
						<path d="M158.208,338.505c0,0-7.54-3.101-9.849,4.921c-2.309,8.022-7.738,7.377-8.708,4.012
							c-1.134-3.932-1.943-16.385,1.725-17.001C145.758,329.701,156.827,334.752,158.208,338.505z"/>
					</g>
				</g>
				<g>
					<g>
						<path style="fill:#ff0000;" d="M154.052,328.309c0,0,7.834-2.181,10.386,6.039c2.553,8.22-1.135,28.015-1.135,28.015
							s-6.578-2.357-8.461-9.287c-1.884-6.93-1.049-21.956-13.466-22.639L154.052,328.309z"/>
					</g>
				</g>
				<g style="opacity:0.2;">
					<g>
						<path d="M151.821,329.077c7.144,5.563,8.33,15.063,9.211,23.454c0.038,0.361,0.609,0.365,0.57,0
							c-0.896-8.533-2.116-18.201-9.379-23.857C151.938,328.45,151.532,328.851,151.821,329.077L151.821,329.077z"/>
					</g>
				</g>
			</g>
			<g>
				<g>
					<g>
						<path style="fill:#ff0000;" d="M166.223,375.716c0,0-4.708-1.418-9.641,5.316c-4.753,6.488-6.649,7.25-9.871,4.727
							c-3.222-2.523-1.274-16.659,2.367-17.422C153.427,367.424,164.692,372.022,166.223,375.716z"/>
					</g>
				</g>
				<g style="opacity:0.5;">
					<g>
						<path d="M166.223,375.716c0,0-4.708-1.418-9.641,5.316c-4.753,6.488-6.649,7.25-9.871,4.727
							c-3.222-2.523-1.274-16.659,2.367-17.422C153.427,367.424,164.692,372.022,166.223,375.716z"/>
					</g>
				</g>
				<g>
					<g>
						<path style="fill:#ff0000;" d="M166.199,364.518c0,0,11.046-3.563,15.161,8.012c4.115,11.574,0,40.018,0,40.018
							s-9.517-2.981-12.603-12.755c-3.087-9.774-2.287-31.08-20.034-31.337C152.285,367.372,159.22,365.947,166.199,364.518z"/>
					</g>
				</g>
				<g style="opacity:0.2;">
					<g>
						<path d="M163.149,365.75c8.913,4.619,14.751,14.281,14.68,24.321c-0.003,0.367,0.568,0.368,0.57,0
							c0.072-10.231-5.877-20.106-14.963-24.814C163.112,365.089,162.823,365.581,163.149,365.75L163.149,365.75z"/>
					</g>
				</g>
			</g>
			<g>
				<g>
					<g>
						<path style="fill:#ff0000;" d="M121.33,356.92c0,0,7.659-2.793,9.641,5.316c1.982,8.109,11.956,11.205,12.979,7.243
							c1.092-4.229-1.322-19.292-4.962-20.056C134.639,348.51,122.861,353.225,121.33,356.92z"/>
					</g>
				</g>
				<g style="opacity:0.5;">
					<g>
						<path d="M121.33,356.92c0,0,7.659-2.793,9.641,5.316c1.982,8.109,11.956,11.205,12.979,7.243
							c1.092-4.229-1.322-19.292-4.962-20.056C134.639,348.51,122.861,353.225,121.33,356.92z"/>
					</g>
				</g>
				<g>
					<g>
						<path style="fill:#ff0000;" d="M121.354,345.722c0,0-11.045-3.563-15.161,8.012c-4.115,11.574,0,40.018,0,40.018
							s9.516-2.981,12.603-12.754c3.086-9.774,2.765-31.25,20.512-31.507L121.354,345.722z"/>
					</g>
				</g>
				<g>
					<g>
						<path style="opacity:0.2;" d="M125.787,346.71c-4.779,0.237-8.87,3.234-11.539,7.063c-3.255,4.67-4.372,10.441-5.445,15.922
							c-0.07,0.359,0.48,0.512,0.55,0.152c1.012-5.171,2.049-10.553,4.913-15.072c2.53-3.991,6.66-7.253,11.521-7.494
							C126.152,347.262,126.154,346.692,125.787,346.71L125.787,346.71z"/>
					</g>
				</g>
			</g>
			<g>
				<g>
					<path style="fill:#ff0000;" d="M143.225,414.457h1.945c4.891-20.706,1.598-42.885-2.096-58.016
						c-4.101-16.799-9.569-28.785-9.624-28.904c-0.218-0.475-0.781-0.683-1.255-0.464c-0.475,0.218-0.683,0.78-0.465,1.255
						c0.054,0.118,5.458,11.97,9.514,28.601C144.91,371.953,148.178,394.007,143.225,414.457z"/>
				</g>
			</g>
		</g>
	</g>
</g>
<g id="Character">
	<g>
		<g>
			<g>
				<g>
					<g>
						<g>
							<g>
								<polygon style="fill:#FF8B7B;" points="355.158,428.818 355.158,446.19 348.141,446.749 344.705,430.484 								"/>
							</g>
						</g>
					</g>
					<g>
						<g>
							<g>
								<path style="fill:#263238;" d="M350.179,445.113c0,0-2.206-4.236-3.508-3.783c-1.302,0.452-1.832,5.59-1.832,5.59
									s-7.072,2.365-9.048,2.49c-1.976,0.125-3.575,1.245-3.829,5.103h24.148c0,0-0.163-8.713-0.207-10.207
									c-0.044-1.494-2.17,0.373-2.17,0.373L350.179,445.113z"/>
							</g>
						</g>
						<g>
							<g>
								<g>
									<path style="fill:#FFFFFF;" d="M355.844,447.617c-1.689,1.031-2.482,3.079-1.312,5.092c0.13,0.223-0.176,0.418-0.306,0.194
										c-1.281-2.204-0.491-4.474,1.383-5.616C355.807,447.164,356.043,447.495,355.844,447.617L355.844,447.617z"/>
								</g>
							</g>
						</g>
						<g>
							<g>
								<g>
									<path style="fill:#FFFFFF;" d="M355.88,453.125c-6.314,0.066-12.629,0.132-18.943,0.198
										c-1.468,0.015-2.936,0.031-4.404,0.046c-0.247,0.003-0.296-0.381-0.049-0.383c6.314-0.066,12.629-0.132,18.943-0.198
										c1.468-0.016,2.936-0.031,4.404-0.046C356.077,452.74,356.126,453.123,355.88,453.125L355.88,453.125z"/>
								</g>
							</g>
						</g>
						<g>
							<g>
								<g>
									<path style="fill:#FFFFFF;" d="M345.884,448.439c-0.992-1.182-2.436-1.514-3.523-0.623
										c-0.18,0.147-0.413-0.186-0.236-0.331c1.245-1.02,2.94-0.58,4.065,0.761C346.36,448.447,346.052,448.638,345.884,448.439
										L345.884,448.439z"/>
								</g>
							</g>
						</g>
						<g>
							<g>
								<g>
									<path style="fill:#FFFFFF;" d="M343.884,449.067c-0.992-1.182-2.436-1.514-3.523-0.623
										c-0.18,0.147-0.413-0.186-0.236-0.331c1.245-1.02,2.94-0.58,4.065,0.761C344.359,449.074,344.052,449.266,343.884,449.067
										L343.884,449.067z"/>
								</g>
							</g>
						</g>
						<g>
							<g>
								<g>
									<path style="fill:#FFFFFF;" d="M341.816,449.694c-0.992-1.182-2.436-1.514-3.523-0.623
										c-0.18,0.147-0.413-0.186-0.236-0.331c1.245-1.02,2.94-0.58,4.065,0.761C342.291,449.702,341.983,449.894,341.816,449.694
										L341.816,449.694z"/>
								</g>
							</g>
						</g>
					</g>
				</g>
				<path style="fill:#ff0000;" d="M359.37,256.64c-0.2,3.1,0.225,12.62-0.195,17.73c-0.79,9.74-1.85,22.37-2.69,35.02
					c-0.98,14.65-1.68,29.32-1.33,39.5c0.9,26.14,0.7,85.38,0.7,85.38h-11.34c0,0-13.32-58.88-15.81-85.38
					c-2.08-21.97-0.977-78.57-0.627-92.25H359.37z"/>
				<path style="opacity:0.3;fill:#FFFFFF;" d="M359.37,256.64c-0.2,3.1,0.225,12.62-0.195,17.73c-0.79,9.74-1.85,22.37-2.69,35.02
					c-0.98,14.65-1.68,29.32-1.33,39.5c0.9,26.14,0.7,85.38,0.7,85.38h-11.34c0,0-13.32-58.88-15.81-85.38
					c-2.08-21.97-0.977-78.57-0.627-92.25H359.37z"/>
				<path style="opacity:0.2;" d="M359.175,274.37c-0.79,9.74-1.85,22.37-2.69,35.02c-5.58-16.52-0.4-41.48-0.4-41.48
					L359.175,274.37z"/>
				<polygon style="fill:#ff0000;" points="356.842,434.673 343.533,434.673 342.557,430.428 357.188,430.25 				"/>
			</g>
			<g>
				<g>
					<g>
						<g>
							<g>
								<g>
									<polygon style="fill:#FF8B7B;" points="417.768,425.578 420.419,442.747 413.57,444.371 407.692,428.82 									"/>
								</g>
							</g>
						</g>
						<g>
							<g>
								<path style="fill:#263238;" d="M415.335,442.443c0,0-2.827-3.849-4.045-3.203c-1.218,0.646-0.958,5.804-0.958,5.804
									s-6.628,3.417-8.562,3.841c-1.934,0.425-3.343,1.776-3.005,5.628l23.865-3.686c0,0-1.491-8.586-1.763-10.056
									c-0.271-1.47-2.088,0.7-2.088,0.7L415.335,442.443z"/>
							</g>
						</g>
						<g>
							<g>
								<g>
									<path style="fill:#FFFFFF;" d="M421.315,444.052c-1.512,1.276-1.983,3.422-0.52,5.233c0.162,0.201-0.11,0.44-0.273,0.238
										c-1.602-1.983-1.168-4.346,0.509-5.762C421.21,443.611,421.494,443.902,421.315,444.052L421.315,444.052z"/>
								</g>
							</g>
						</g>
						<g>
							<g>
								<g>
									<path style="fill:#FFFFFF;" d="M422.192,449.491c-6.23,1.029-12.461,2.058-18.691,3.087
										c-1.448,0.239-2.897,0.478-4.345,0.718c-0.243,0.04-0.35-0.331-0.107-0.371c6.23-1.029,12.46-2.058,18.691-3.087
										c1.448-0.239,2.897-0.479,4.345-0.718C422.328,449.079,422.435,449.451,422.192,449.491L422.192,449.491z"/>
								</g>
							</g>
						</g>
						<g>
							<g>
								<g>
									<path style="fill:#FFFFFF;" d="M411.598,446.385c-1.161-1.017-2.638-1.124-3.577-0.078
										c-0.155,0.173-0.437-0.12-0.284-0.291c1.075-1.198,2.817-1.022,4.134,0.132
										C412.069,446.32,411.794,446.556,411.598,446.385L411.598,446.385z"/>
								</g>
							</g>
						</g>
						<g>
							<g>
								<g>
									<path style="fill:#FFFFFF;" d="M409.717,447.311c-1.161-1.017-2.638-1.125-3.577-0.078
										c-0.155,0.173-0.437-0.12-0.284-0.291c1.075-1.198,2.817-1.022,4.133,0.131
										C410.188,447.246,409.913,447.482,409.717,447.311L409.717,447.311z"/>
								</g>
							</g>
						</g>
						<g>
							<g>
								<g>
									<path style="fill:#FFFFFF;" d="M407.769,448.247c-1.161-1.017-2.638-1.124-3.577-0.078
										c-0.155,0.173-0.437-0.12-0.284-0.291c1.075-1.198,2.817-1.022,4.134,0.132
										C408.24,448.182,407.965,448.419,407.769,448.247L407.769,448.247z"/>
								</g>
							</g>
						</g>
					</g>
				</g>
				<path style="fill:#ff0000;" d="M377.829,351.18c7.008,25.673,30.568,81.201,30.568,81.201l11.174-1.946
					c0,0-11.638-57.775-17.003-83.367c-4.841-23.098-10.157-76.148-11.874-91.944L353.19,258.5
					C355.188,272.031,372.014,329.883,377.829,351.18L377.829,351.18z"/>
				<path style="opacity:0.3;fill:#FFFFFF;" d="M377.829,351.18c7.008,25.673,30.568,81.201,30.568,81.201l11.174-1.946
					c0,0-11.638-57.775-17.003-83.367c-4.841-23.098-10.157-76.148-11.874-91.944L353.19,258.5
					C355.188,272.031,372.014,329.883,377.829,351.18L377.829,351.18z"/>
				<polygon style="fill:#ff0000;" points="420.61,430.666 407.499,432.949 405.809,428.935 420.419,426.267 				"/>
			</g>
			<path style="fill:#263238;" d="M392.88,255.123c0.147,1.656-1.603,3.607-3.253,3.677l-59.83,2.76
				c-1.75,0.08-3.8-1.122-3.75-2.872c0.6-20.64,5.41-91.648,7.03-96.128c2-5.5,13.07-7.48,17.91-7.92
				c6.97-0.64,15.02-0.43,22.94-0.05c3.73,0.18,7.13,0.51,9.95,0.86c4.29,0.53,7.29,4.51,6.6,8.77c-1.3,8.04-2.07,16.06-2.46,23.86
				c-0.02,0.39-0.04,0.77-0.06,1.15c-0.13,2.69-0.25,5.35-0.26,7.97c-0.01,0.52-0.02,1.05-0.01,1.57
				C387.947,225.5,391.414,238.594,392.88,255.123z"/>
			<path style="opacity:0.2;" d="M388.017,188.08c-0.02,0.39-0.04,0.77-0.06,1.15c-0.13,2.69-0.25,5.35-0.26,7.97l-11.51-22.59
				L388.017,188.08z"/>
			<g>
				<g>
					<g>
						<g>
							<g>
								<path style="fill:#263238;" d="M355.043,114.211c0,0-10.376-4.886-14.66-2.47c-3.372,1.902-1.122,5.812-1.122,5.812
									s-6.334,0.196-6.334,4.196c0,3.396,3.409,3.588,3.409,3.588s-2.244,3.868,0.226,4.752c2.47,0.884,5.357-4.213,5.357-4.213
									L355.043,114.211z"/>
								<path style="fill:#263238;" d="M365.974,134.268c0,0,2.724,3.949,2.178,5.044c-0.818,1.64-3.006-0.227-3.006-0.227
									s1.962,2.692,0,3.988c-1.962,1.295-3.25-5.273-3.25-5.273L365.974,134.268z"/>
								<path style="fill:#263238;" d="M350.331,114.679c4.281-1.05,8.854-0.402,12.538,2.018c2.406,1.58,4.408,3.829,4.046,6.862
									c-0.844,7.077-4.019,18.737-4.019,18.737l-22.804-13.917c0,0-1.01-5.96,1.897-9.699
									C343.504,116.731,347.167,115.455,350.331,114.679z"/>
								<g>
									<path style="fill:#FF8B7B;" d="M351.548,150.052l-0.002,0.009c0.014,0.032,0.021,0.053,0.035,0.085l1.109,4.075
										c0.095,0.833,0.112,1.662,0.053,2.469c-0.047,0.681-0.149,1.342-0.286,1.978c-0.889,1.236-1.294,4.031,1.895,4.021
										c4.025-0.006,11.369-5.942,11.621-7.719c-1.902-5.488-3.508-11.91-3.246-17.169l-4.558,5.002L351.548,150.052z"/>
								</g>
								<g style="opacity:0.2;">
									<path d="M351.581,150.146l1.109,4.075c2.51-1.168,5.128-3.666,5.712-6.351c0.408-1.938-0.477-3.741-1.258-3.834
										L351.581,150.146z"/>
								</g>
								<g>
									<path style="fill:#FF8B7B;" d="M341.327,141.67c0.244,0.886,0.517,1.759,0.809,2.619
										c2.596,7.597,11.996,8.217,17.798,2.564c0.009-0.011,0.008-0.021,0.018-0.022c0.514-0.502,1.003-1.052,1.455-1.657
										c3.678-4.912,2.717-8.66,2.094-17.18c-0.622-8.511-9.769-13.764-17.465-9.347
										C338.933,122.723,338.865,132.812,341.327,141.67z"/>
								</g>
								<g>
									<path style="fill:#263238;" d="M346.926,143.074c-0.141,0-0.225-0.007-0.23-0.008c-0.14-0.014-0.241-0.138-0.229-0.278
										c0.014-0.139,0.137-0.239,0.278-0.229c0.137,0.014,3.484,0.291,3.986-3.507c0.018-0.139,0.149-0.241,0.285-0.219
										c0.14,0.018,0.238,0.147,0.22,0.286C350.75,142.804,347.782,143.074,346.926,143.074z"/>
								</g>
								<path style="fill:#263238;" d="M363.599,128.789c0,0-2.571,0.137-2.668,2.339c-0.097,2.202,0.133,2.49,0.133,2.49
									l-3.033,0.65c0,0,0.802-8.398-1.41-8.282c-2.212,0.117,0.168-3.669-1.165-4.208c-3.143-1.271-11.693-1.308-14.965,3.856
									c0,0,0.847-5.083,4.891-7.841c4.043-2.758,12.204-3.374,15.523,0.619C364.226,122.406,363.599,128.789,363.599,128.789z"/>
								<g>
									<path style="fill:#FF8B7B;" d="M367.888,133.139c-0.325,2.279-1.672,4.195-3.204,5.306
										c-2.303,1.671-4.44-0.151-4.625-2.841c-0.167-2.421,0.831-6.208,3.54-6.814
										C366.268,128.192,368.26,130.533,367.888,133.139"/>
								</g>
								<g>
									<path style="fill:#263238;" d="M350.912,133.783c0.09,0.666-0.189,1.254-0.625,1.313c-0.435,0.059-0.862-0.433-0.952-1.099
										c-0.09-0.666,0.189-1.254,0.625-1.313C350.395,132.625,350.822,133.117,350.912,133.783"/>
								</g>
								<g>
									<path style="fill:#263238;" d="M343.598,134.684c0.09,0.666-0.189,1.254-0.625,1.313c-0.435,0.059-0.862-0.433-0.952-1.099
										c-0.09-0.666,0.189-1.254,0.625-1.313C343.082,133.526,343.508,134.018,343.598,134.684"/>
								</g>
							</g>
							<g>
								<path style="fill:#263238;" d="M340.768,132.141c0.117-0.016,0.222-0.093,0.268-0.211c0.209-0.526,0.519-0.878,0.92-1.046
									c0.661-0.275,1.386,0.019,1.394,0.023c0.168,0.073,0.371-0.005,0.444-0.179c0.073-0.172-0.007-0.371-0.179-0.445
									c-0.039-0.017-0.99-0.413-1.919-0.024c-0.577,0.24-1.011,0.719-1.289,1.421c-0.07,0.174,0.015,0.371,0.19,0.44
									C340.653,132.142,340.712,132.149,340.768,132.141z"/>
							</g>
							<g>
								<path style="fill:#263238;" d="M352.517,130.787c0.049-0.007,0.098-0.025,0.142-0.055c0.155-0.104,0.197-0.314,0.093-0.468
									c-0.024-0.036-0.602-0.887-1.593-1.071c-0.614-0.114-1.239,0.048-1.857,0.484c-0.154,0.108-0.19,0.319-0.082,0.472
									c0.109,0.154,0.32,0.189,0.472,0.081c0.461-0.325,0.911-0.451,1.337-0.373c0.708,0.129,1.155,0.777,1.159,0.783
									C352.264,130.752,352.393,130.804,352.517,130.787z"/>
							</g>
							<g>
								<path style="fill:#FF5652;" d="M346.405,133.415c0,0-1.916,4.523-2.072,5.671c-0.107,0.785,2.388,0.766,2.388,0.766
									L346.405,133.415z"/>
							</g>
						</g>
					</g>
					<g>
						<g>
							<path d="M352.237,153.413c0.002-0.008,0.004-0.013,0.004-0.015c-0.002-0.002-0.006,0.004-0.012,0.015H352.237z"/>
						</g>
					</g>
				</g>
			</g>
		</g>
		<g>
			<path style="fill:#263238;" d="M390.063,159.031c4.741,6.318,9.269,12.8,13.716,19.326c2.238,3.252,4.414,6.55,6.621,9.809
				l3.251,4.903l1.607,2.39l0.8,1.158l0.379,0.544c0.126,0.189,0.173,0.279,0.261,0.424l0.226,0.394l0.165,0.318
				c0.116,0.223,0.209,0.417,0.287,0.59l0.234,0.525c0.554,1.313,0.898,2.364,1.242,3.428c0.335,1.053,0.634,2.069,0.919,3.077
				c0.569,2.013,1.084,3.984,1.55,5.961c0.941,3.944,1.818,7.852,2.598,11.78c1.585,7.846,2.974,15.678,4.049,23.621
				c0.332,2.454-1.388,4.713-3.843,5.045c-2.102,0.285-4.061-0.937-4.788-2.835l-0.009-0.027c-2.832-7.387-5.494-14.85-8.156-22.244
				c-1.351-3.691-2.655-7.387-4.022-11.009c-0.692-1.805-1.363-3.608-2.057-5.343c-0.347-0.866-0.699-1.717-1.052-2.519
				c-0.347-0.789-0.721-1.582-1.005-2.061c-0.038-0.07-0.064-0.102-0.091-0.142c-0.031-0.05-0.051-0.075-0.057-0.068l-0.013-0.008
				l0.033,0.078l0.063,0.111c0.05,0.083,0.105,0.165,0.163,0.243c0.108,0.14-0.021-0.02-0.045-0.047l-0.137-0.165l-0.274-0.331
				l-0.542-0.658l-1.917-2.382l-3.726-4.695c-2.428-3.151-4.865-6.279-7.236-9.456c-4.768-6.335-9.429-12.731-13.861-19.304
				c-2.78-4.122-1.691-9.718,2.431-12.497c3.989-2.69,9.358-1.757,12.22,2.042L390.063,159.031z"/>
			<g>
				<path style="fill:#FF8B7B;" d="M420.329,250.936c0,0-2.733,8.997-2.071,10.877c0.662,1.88,2.775-2,2.775-2L420.329,250.936z"/>
				<path style="fill:#FF8B7B;" d="M428.253,248.61l3.701,8.401c0.897,2.419-6.679,7.035-10.045,5.272
					c-2.655-1.39-1.777-11.74-1.777-11.74C422.507,248.63,425.208,247.966,428.253,248.61z"/>
				<path style="fill:#FF8B7B;" d="M431.955,257.011c0.954,2.701,1.265,8.175-3.094,9.28c-1.953,0.495-2.924,0.426-2.924,0.426
					s0.235,2.412-1.045,2.824c-1.281,0.412-3.858-8.398-3.858-8.398L431.955,257.011z"/>
			</g>
		</g>
		<path style="fill:#263238;" d="M344.307,175.19c-4.34,2.64-8.73,5.1-13.2,7.46c-1.46,0.77-2.93,1.53-4.41,2.27
			c-1.29,0.66-2.58,1.31-3.88,1.95c-3.69,1.8-7.4,3.55-11.26,5.22c-1.94,0.82-3.89,1.63-6.09,2.44c-0.53,0.2-1.16,0.4-1.79,0.61
			l-1.07,0.33l-0.75,0.18l-0.37,0.09l-0.2,0.04l-0.46,0.08c-0.31,0.05-0.66,0.09-0.93,0.11l-0.63,0.02c-0.47,0-0.7-0.02-1.03-0.05
			c-0.33-0.02-0.53-0.05-0.78-0.08c-0.26-0.04-0.47-0.07-0.67-0.11c-0.83-0.15-1.48-0.32-2.11-0.5c-2.44-0.7-4.42-1.47-6.43-2.26
			c-1.99-0.78-3.91-1.63-5.8-2.49c-3.79-1.71-7.48-3.49-11.13-5.36c-7.3-3.72-14.44-7.62-21.43-11.92l2.93-6.6
			c7.79,2.2,15.51,4.62,23.18,6.97c3.84,1.16,7.66,2.35,11.44,3.45l5.62,1.56c1.74,0.46,3.53,0.89,4.99,1.12l0.07-0.03
			c0.32-0.15,0.64-0.29,1.03-0.49c1.53-0.74,3.24-1.66,4.93-2.59c3.41-1.85,6.88-3.8,10.35-5.74c6.95-3.89,13.99-7.8,21.11-11.4
			L344.307,175.19z"/>
		<path style="opacity:0.2;" d="M332.063,171.155l-0.896,11.225c-0.02,0.09-0.04,0.18-0.06,0.27c-1.46,0.77-2.93,1.53-4.41,2.27
			L332.063,171.155z"/>
		<g>
			<g>
				<path style="fill:#FF8B7B;" d="M249.7,173.274c2.884,0.515,6.755-1.087,4.693-6.274c0,0-1.073-2.906-4.499-9.473
					c-1.398-2.679-7.221-3.801-7.221-3.801s-3.029-2.579-3.444-1.172c-0.415,1.407,3.966,4.838,4.522,5.84
					c1.731,3.119,3.506,6.256,3.434,6.815c-0.072,0.559-2.15-3.915-3.986-4.3c-1.836-0.385,1.79,4.766,2.152,6.891
					C245.711,169.925,248.357,173.017,249.7,173.274z"/>
				<g>
					<path style="opacity:0.2;" d="M243.277,153.968c2.05,1.343,3.649,3.164,4.702,5.378c0.084,0.177-0.178,0.338-0.263,0.159
						c-1.028-2.162-2.583-3.955-4.586-5.267C242.966,154.131,243.111,153.86,243.277,153.968L243.277,153.968z"/>
				</g>
				<g>
					<path style="opacity:0.2;" d="M248.031,157.912c-0.585-1.097-1.377-2.009-2.377-2.745c-0.159-0.117,0.056-0.337,0.213-0.221
						c1.019,0.75,1.831,1.691,2.427,2.808C248.387,157.927,248.124,158.087,248.031,157.912L248.031,157.912z"/>
				</g>
			</g>
		</g>
	</g>
</g>
</svg>
