<!DOCTYPE svg PUBLIC "-//W3C//DTD SVG 1.1//EN" "http://www.w3.org/Graphics/SVG/1.1/DTD/svg11.dtd">

<!-- Uploaded to: SVG Repo, www.svgrepo.com, Transformed by: SVG Repo Mixer Tools -->
<svg fill="#FFFFFF" height="800px" width="800px" version="1.1" id="Layer_1" xmlns="http://www.w3.org/2000/svg" xmlns:xlink="http://www.w3.org/1999/xlink" viewBox="0 0 512 512" xml:space="preserve" stroke="#344353">

<g id="SVGRepo_bgCarrier" stroke-width="0"/>

<g id="SVGRepo_tracerCarrier" stroke-linecap="round" stroke-linejoin="round"/>

<g id="SVGRepo_iconCarrier"> <g> <g> <path d="M495.377,478.755h-7.767V310.876c0-9.18-7.443-16.623-16.623-16.623h-75.129c-9.18,0-16.623,7.443-16.623,16.623v167.878 h-25.623V193.903c0-9.18-7.443-16.623-16.623-16.623h-75.128c-9.18,0-16.623,7.443-16.623,16.623v284.85h-25.625V241.18 c0-9.18-7.443-16.623-16.623-16.623h-75.128c-9.18,0-16.623,7.443-16.623,16.623v237.573h-76.6c-0.768,0-1.394-0.626-1.394-1.395 v-54.024h37.133c9.18,0,16.623-7.443,16.623-16.623s-7.443-16.623-16.623-16.623H33.246v-33.91h37.133 c9.18,0,16.623-7.443,16.623-16.623s-7.443-16.623-16.623-16.623H33.246v-33.91h37.133c9.18,0,16.623-7.443,16.623-16.623 s-7.443-16.623-16.623-16.623H33.246v-33.91h37.133c9.18,0,16.623-7.443,16.623-16.623s-7.443-16.623-16.623-16.623H33.246v-33.91 h37.133c9.18,0,16.623-7.443,16.623-16.623s-7.443-16.623-16.623-16.623H33.246v-33.91h37.133c9.18,0,16.623-7.443,16.623-16.623 S79.559,54.31,70.379,54.31H33.246V16.623C33.246,7.443,25.803,0,16.623,0S0.001,7.443,0.001,16.623v460.737 C0.001,496.46,15.539,512,34.64,512c3.234,0,452.799,0,460.737,0c9.18,0,16.623-7.443,16.623-16.623 S504.557,478.755,495.377,478.755z M186.368,478.753h-41.883v-220.95h41.883V478.753z M320.366,478.753h-41.883V210.526h41.883 V478.753z M454.364,478.755H412.48V327.499h41.884V478.755z"/> </g> </g> </g>

</svg>